<svg width="13" height="14" viewBox="0 0 13 14" fill="none" xmlns="http://www.w3.org/2000/svg">
<path d="M11.6638 2H8.85345V1.25C8.85345 0.918479 8.73008 0.600537 8.51048 0.366117C8.29088 0.131696 7.99304 0 7.68248 0H5.34052C5.02996 0 4.73212 0.131696 4.51252 0.366117C4.29291 0.600537 4.16954 0.918479 4.16954 1.25V2H1.3592C1.23497 2 1.11584 2.05268 1.028 2.14645C0.940156 2.24021 0.890808 2.36739 0.890808 2.5C0.890808 2.63261 0.940156 2.75979 1.028 2.85355C1.11584 2.94732 1.23497 3 1.3592 3H1.85686L2.41308 12.5288C2.45465 13.3678 3.05712 14 3.81825 14H9.20475C9.96969 14 10.5602 13.3819 10.6099 12.5312L11.1661 3H11.6638C11.788 3 11.9072 2.94732 11.995 2.85355C12.0828 2.75979 12.1322 2.63261 12.1322 2.5C12.1322 2.36739 12.0828 2.24021 11.995 2.14645C11.9072 2.05268 11.788 2 11.6638 2ZM4.65462 12H4.63793C4.51655 12.0001 4.39987 11.9499 4.3125 11.8599C4.22512 11.77 4.17387 11.6473 4.16954 11.5178L3.93535 4.51781C3.93092 4.3852 3.97603 4.25615 4.06074 4.15904C4.14545 4.06193 4.26283 4.00472 4.38705 4C4.51128 3.99528 4.63217 4.04342 4.72314 4.13385C4.81411 4.22428 4.8677 4.34958 4.87213 4.48219L5.10633 11.4822C5.10856 11.5479 5.09864 11.6134 5.07714 11.6749C5.05564 11.7365 5.02298 11.793 4.98103 11.841C4.93907 11.8891 4.88865 11.9279 4.83265 11.9552C4.77664 11.9825 4.71614 11.9977 4.65462 12ZM6.97989 11.5C6.97989 11.6326 6.93054 11.7598 6.8427 11.8536C6.75486 11.9473 6.63572 12 6.5115 12C6.38727 12 6.26814 11.9473 6.1803 11.8536C6.09246 11.7598 6.04311 11.6326 6.04311 11.5V4.5C6.04311 4.36739 6.09246 4.24021 6.1803 4.14645C6.26814 4.05268 6.38727 4 6.5115 4C6.63572 4 6.75486 4.05268 6.8427 4.14645C6.93054 4.24021 6.97989 4.36739 6.97989 4.5V11.5ZM7.91667 2H5.10633V1.25C5.10597 1.21706 5.11179 1.18439 5.12343 1.15388C5.13508 1.12338 5.15232 1.09567 5.17413 1.07238C5.19595 1.04909 5.22191 1.03069 5.25048 1.01826C5.27906 1.00583 5.30967 0.999623 5.34052 1H7.68248C7.71333 0.999623 7.74394 1.00583 7.77251 1.01826C7.80109 1.03069 7.82705 1.04909 7.84886 1.07238C7.87068 1.09567 7.88792 1.12338 7.89956 1.15388C7.91121 1.18439 7.91702 1.21706 7.91667 1.25V2ZM8.85345 11.5178C8.84913 11.6473 8.79788 11.77 8.7105 11.8599C8.62312 11.9499 8.50645 12.0001 8.38506 12H8.36808C8.30659 11.9977 8.24612 11.9824 8.19015 11.9551C8.13417 11.9278 8.08379 11.889 8.04187 11.8409C7.99994 11.7929 7.96731 11.7364 7.94583 11.6749C7.92435 11.6133 7.91444 11.5478 7.91667 11.4822L8.15087 4.48219C8.15306 4.41653 8.16734 4.35197 8.19291 4.2922C8.21847 4.23243 8.25481 4.17863 8.29985 4.13385C8.3449 4.08908 8.39776 4.05421 8.45543 4.03124C8.51309 4.00828 8.57443 3.99766 8.63594 4C8.69745 4.00234 8.75793 4.01759 8.81392 4.04488C8.86991 4.07217 8.92031 4.11096 8.96226 4.15904C9.0042 4.20713 9.03687 4.26356 9.05838 4.32511C9.07989 4.38667 9.08984 4.45215 9.08765 4.51781L8.85345 11.5178Z" fill="#BD0025"/>
</svg>
