<svg width="67" height="42" viewBox="0 0 67 42" fill="none" xmlns="http://www.w3.org/2000/svg">
<g clip-path="url(#clip0_8_595)">
<path d="M4.02222 26.4035V13.5612H9.27838C10.2078 13.5612 10.8969 13.6015 11.3776 13.6823C11.9225 13.7792 12.4273 13.9731 12.8599 14.28C13.3006 14.5788 13.6692 14.9908 13.9576 15.4835C14.2621 16.0004 14.4143 16.5819 14.4143 17.2119C14.4143 17.8985 14.2301 18.5365 13.8615 19.11C13.7734 19.2392 13.6852 19.3685 13.5891 19.4815C13.8375 19.6673 14.0618 19.8935 14.2461 20.1358C14.7188 20.7577 14.9592 21.5008 14.9592 22.3327C14.9592 22.9708 14.815 23.5927 14.5185 24.1823C14.222 24.7881 13.8134 25.2808 13.2926 25.6523C12.7718 26.0238 12.1388 26.25 11.4097 26.3308C11.001 26.3712 10.0956 26.4035 8.62937 26.4115H4.02222V26.4035ZM9.15819 22.8415C10.2238 22.8415 10.4802 22.8012 10.5203 22.7931H10.5443C10.6966 22.7608 10.8007 22.7042 10.8889 22.6073C10.961 22.5265 10.993 22.3973 10.993 22.2196C10.993 22.0581 10.961 21.9369 10.8969 21.8481C10.8568 21.7915 10.7847 21.7108 10.6084 21.6542C10.5524 21.6381 10.2158 21.5412 8.89378 21.5412H7.91626V22.8496H9.15819V22.8415ZM8.55726 17.9954C9.69502 17.9954 9.9995 17.9712 10.0796 17.9631C10.2719 17.9388 10.4081 17.8823 10.4963 17.8015C10.5203 17.7773 10.5844 17.7127 10.5844 17.5188C10.5844 17.325 10.5283 17.2523 10.5123 17.2281C10.4642 17.1715 10.352 17.1312 10.1918 17.115C10.1117 17.1069 9.76713 17.0827 8.38098 17.0827H7.92427V17.9873H8.55726V17.9954Z" fill="#F9D615"/>
<path d="M14.0939 26.4035V13.5612H23.9652V17.1312H17.9879V17.9227H23.5485V21.4846H17.9879V22.8496H24.1815V26.4035H14.0939Z" fill="#F9D615"/>
<path d="M4.85547 14.4011H9.28635C10.1597 14.4011 10.8167 14.4415 11.2494 14.5142C11.6821 14.5869 12.0667 14.7404 12.4032 14.9746C12.7397 15.2088 13.0282 15.5158 13.2525 15.9115C13.4769 16.2992 13.589 16.7354 13.589 17.22C13.589 17.745 13.4528 18.2215 13.1724 18.6577C12.8919 19.0938 12.5154 19.425 12.0346 19.6431C12.7077 19.845 13.2285 20.1761 13.589 20.6527C13.9496 21.1292 14.1339 21.6946 14.1339 22.3327C14.1339 22.8415 14.0137 23.3342 13.7813 23.8108C13.549 24.2873 13.2285 24.675 12.8198 24.9577C12.4112 25.2485 11.9144 25.4181 11.3215 25.4908C10.9449 25.5311 10.0475 25.5554 8.62131 25.5634H4.85547V14.3931V14.4011ZM7.09094 16.2588V18.8435H8.55721C9.43057 18.8435 9.9674 18.8273 10.1837 18.8031C10.5683 18.7546 10.8648 18.6254 11.0891 18.3992C11.3055 18.1811 11.4177 17.8904 11.4177 17.5269C11.4177 17.1635 11.3215 16.905 11.1372 16.6869C10.9449 16.4688 10.6645 16.3396 10.2959 16.2911C10.0716 16.2669 9.43858 16.2508 8.38094 16.2508H7.09895L7.09094 16.2588ZM7.09094 20.7011V23.6896H9.15815C9.9674 23.6896 10.4722 23.6654 10.6885 23.625C11.017 23.5604 11.2895 23.415 11.4978 23.1808C11.7061 22.9465 11.8103 22.6315 11.8103 22.2358C11.8103 21.9046 11.7301 21.6138 11.5699 21.3796C11.4096 21.1454 11.1773 20.9758 10.8728 20.8708C10.5683 20.7658 9.9033 20.7092 8.88572 20.7092H7.08293L7.09094 20.7011Z" fill="black"/>
<path d="M30.9921 26.4035L29.1252 23.6008C28.4041 22.5185 28.1316 22.1712 28.0355 22.0662C27.9153 21.9369 27.8031 21.8562 27.691 21.8158C27.6509 21.7996 27.5227 21.7673 27.2182 21.7512V26.4035H23.3162V13.5612H28.8528C30.1508 13.5612 31.0882 13.6742 31.7212 13.9165C32.4263 14.1831 33.0032 14.6515 33.4198 15.3219C33.8285 15.9681 34.0288 16.7112 34.0288 17.5269C34.0288 18.5769 33.7083 19.4654 33.0833 20.1681C32.7949 20.4912 32.4503 20.7577 32.0417 20.9677C32.0577 20.9838 32.0657 20.9919 32.0818 21.0081C32.4343 21.3958 32.883 22.0258 33.4519 22.9546L35.5992 26.4115H30.9761L30.9921 26.4035ZM28.0435 18.2862C29.4216 18.2862 29.7421 18.2054 29.7902 18.1892C29.9104 18.1488 29.9585 18.0923 29.9985 18.0358C30.0546 17.955 30.0787 17.8338 30.0787 17.6723C30.0787 17.4219 30.0065 17.3412 29.9825 17.3088C29.9585 17.2765 29.8864 17.1958 29.646 17.1473C29.5739 17.1392 29.2854 17.115 28.1396 17.115H27.2262V18.27H28.0515L28.0435 18.2862Z" fill="#F9D615"/>
<path d="M14.9191 25.5634V14.3931H23.1319V16.2831H17.1546V18.7627H22.7152V20.6446H17.1546V23.6815H23.3402V25.5634H14.9111H14.9191Z" fill="black"/>
<path d="M40.3266 26.4035L37.1537 21.2342V26.4035H33.4119V13.5612H36.8893L40.1263 18.8838V13.5612H43.8681V26.4035H40.3266Z" fill="#F9D615"/>
<path d="M24.1574 25.5634V14.3931H28.8687C30.0546 14.3931 30.9119 14.49 31.4487 14.6919C31.9856 14.8938 32.4183 15.2492 32.7387 15.7661C33.0592 16.2831 33.2195 16.8646 33.2195 17.5269C33.2195 18.3669 32.9791 19.0535 32.4904 19.6027C32.0016 20.1519 31.2725 20.4911 30.295 20.6365C30.7757 20.9192 31.1763 21.2342 31.4888 21.5734C31.8013 21.9127 32.226 22.5185 32.7628 23.3827L34.1169 25.5634H31.4407L29.8222 23.1323C29.2453 22.26 28.8527 21.7188 28.6444 21.4927C28.4361 21.2665 28.2117 21.1131 27.9713 21.0242C27.731 20.9435 27.3624 20.895 26.8416 20.895H26.3849V25.5554H24.1494L24.1574 25.5634ZM26.3929 19.1181H28.0515C29.1251 19.1181 29.7982 19.0696 30.0626 18.9808C30.327 18.8919 30.5353 18.7304 30.6876 18.5123C30.8398 18.2861 30.9119 18.0115 30.9119 17.6723C30.9119 17.2927 30.8158 16.9938 30.6155 16.7596C30.4151 16.5254 30.1347 16.38 29.7741 16.3235C29.5899 16.2992 29.045 16.2831 28.1396 16.2831H26.3929V19.1181Z" fill="black"/>
<path d="M51.2876 26.4035L50.3181 23.8673H47.041L46.1276 26.4035H41.9531L46.9128 13.5612H50.4062L55.5102 26.4035H51.2796H51.2876ZM48.98 20.3054L48.6595 19.4331L48.347 20.3054H48.988H48.98Z" fill="#F9D615"/>
<path d="M34.2451 25.5634V14.3931H36.4245L40.9595 21.8481V14.3931H43.0348V25.5634H40.7913L36.3283 18.2781V25.5634H34.2531H34.2451Z" fill="black"/>
<path d="M53.6112 26.4035V13.65H57.5052V22.8496H63.0739V26.4035H53.6112Z" fill="#F9D615"/>
<path d="M54.2923 25.5634H51.8565L50.887 23.0273H46.4561L45.5427 25.5634H43.171L47.4897 14.3931H49.8534L54.2923 25.5634ZM50.1739 21.1454L48.6435 17.0019L47.1452 21.1454H50.1659H50.1739Z" fill="black"/>
<path d="M54.4365 25.5635V14.49H56.672V23.6815H62.2326V25.5635H54.4365Z" fill="black"/>
<path d="M5.56055 38.0181L35.7434 28.7619L32.9791 31.7342L43.4834 29.3838V30.4904L60.4858 28.6812L60.6861 29.6585L32.8429 38.2927L32.3461 37.4527L33.9005 35.9504L26.0724 37.4365L26.2727 36.1685L5.77688 39.0035L5.56055 38.0181Z" fill="#F9D615"/>
<path d="M34.1008 29.7958L31.5048 32.5823L42.9866 30.0058V31.0477L60.5419 29.1819L32.6906 37.8162L35.4629 35.1346L26.6733 36.8146L26.8656 35.5789L5.71277 38.5027L34.1008 29.7958Z" fill="#F9D615"/>
<path d="M7.22717 38.1554L33.2115 30.3531L30.6956 33.0427L42.7143 30.3531V31.3546L58.5709 29.5696L33.4278 37.3639L36.3604 34.6904L27.0019 36.4673L27.1862 35.2477L7.22717 38.1554Z" fill="#8B0417"/>
<path d="M8.30882 10.3627C8.50913 10.6292 8.61329 10.9442 8.61329 11.2915C8.61329 11.7196 8.46105 12.0831 8.16459 12.39C7.86813 12.6969 7.49956 12.8423 7.0749 12.8423H4.91956V7.875H7.0749C7.49956 7.875 7.86012 8.02846 8.16459 8.32731C8.46906 8.63423 8.61329 8.99769 8.61329 9.42577C8.61329 9.78115 8.50913 10.0881 8.30882 10.3546V10.3627ZM7.0749 9.74077C7.16304 9.74077 7.23515 9.70846 7.29124 9.65192C7.35534 9.58731 7.37937 9.51462 7.37937 9.43385C7.37937 9.35308 7.34732 9.27231 7.29124 9.21577C7.22714 9.15115 7.15503 9.12692 7.0749 9.12692H6.15347V9.74885H7.0749V9.74077ZM7.0749 10.9846H6.15347V11.6065H7.0749C7.16304 11.6065 7.23515 11.5742 7.29124 11.5177C7.34732 11.4612 7.37937 11.3804 7.37937 11.2996C7.37937 11.2188 7.34732 11.1381 7.29124 11.0815C7.22714 11.0169 7.15503 10.9927 7.0749 10.9927V10.9846Z" fill="white"/>
<path d="M15.9446 12.2284H14.1338L13.8935 12.8504H12.5714L14.4623 7.88306H15.6161L17.5071 12.8504H16.185L15.9446 12.2284ZM15.4719 10.9846L15.0392 9.84575L14.6066 10.9846H15.4719Z" fill="white"/>
<path d="M23.0117 9.11885V12.8423H21.7778V9.11885H20.8563V7.875H23.9331V9.11885H23.0117Z" fill="white"/>
<path d="M29.702 11.6065H31.5529V12.8504H28.4761V7.88306H31.5529V9.1269H29.702V9.74883H31.2404L31.0881 10.9927H29.702V11.6146V11.6065Z" fill="white"/>
<path d="M38.2352 7.875C38.6599 7.875 39.0204 8.02846 39.3249 8.32731C39.6294 8.63423 39.7736 8.99769 39.7736 9.42577C39.7736 9.85385 39.6214 10.2173 39.3249 10.5242C39.1807 10.6696 39.0284 10.7746 38.8602 10.8554C39.3329 11.5177 39.6855 12.18 39.9098 12.8423H38.4836C38.2673 12.2204 37.9468 11.5985 37.5141 10.9765H37.2978V12.8423H36.0638V7.875H38.2192H38.2352ZM38.2352 9.74077C38.3234 9.74077 38.3955 9.70846 38.4516 9.65192C38.5157 9.58731 38.5397 9.51462 38.5397 9.43385C38.5397 9.35308 38.5076 9.27231 38.4516 9.21577C38.3875 9.15115 38.3153 9.12692 38.2352 9.12692H37.3138V9.74885H38.2352V9.74077Z" fill="white"/>
<path d="M45.5346 12.8504H44.3007V7.88306H45.5346V12.8504Z" fill="white"/>
<path d="M53.1224 12.2284H51.3116L51.0712 12.8504H49.7491L51.6401 7.88306H52.7939L54.6848 12.8504H53.3628L53.1224 12.2284ZM52.6496 10.9846L52.217 9.84575L51.7843 10.9846H52.6496Z" fill="white"/>
<path d="M60.4378 7.875C61.0547 7.875 61.6717 7.92346 62.2886 8.02846V9.27231C61.6717 9.16731 61.0547 9.11885 60.4378 9.11885C60.3496 9.11885 60.2775 9.15115 60.2214 9.20769C60.1573 9.27231 60.1333 9.345 60.1333 9.42577C60.1333 9.50654 60.1653 9.58731 60.2214 9.64385C60.2855 9.70846 60.3576 9.73269 60.4378 9.73269H60.7422C61.1669 9.73269 61.5274 9.88615 61.8319 10.185C62.1364 10.4919 62.2806 10.8554 62.2806 11.2835C62.2806 11.7115 62.1284 12.075 61.8319 12.3819C61.5274 12.6888 61.1669 12.8342 60.7422 12.8342C60.1253 12.8342 59.5083 12.7858 58.8914 12.6808V11.4369C59.5083 11.5419 60.1253 11.5904 60.7422 11.5904C60.8304 11.5904 60.9025 11.5581 60.9586 11.5015C61.0147 11.445 61.0467 11.3642 61.0467 11.2835C61.0467 11.2027 61.0147 11.1219 60.9586 11.0654C60.8945 11.0008 60.8224 10.9765 60.7422 10.9765H60.4378C60.0131 10.9765 59.6525 10.8231 59.3481 10.5242C59.0436 10.2254 58.8994 9.85385 58.8994 9.42577C58.8994 8.99769 59.0516 8.63423 59.3481 8.32731C59.6525 8.02038 60.0131 7.875 60.4378 7.875Z" fill="white"/>
<path d="M67 42H0V0H67V42ZM0.681057 41.3135H66.3189V0.686538H0.681057V41.3135Z" fill="#000100"/>
<path d="M66.4231 41.3135H0.689087V0.694641H66.4231V41.3135ZM1.37816 40.6269H65.734V1.38118H1.37816V40.6269Z" fill="#F9D615"/>
<path d="M65.9264 40.7319H1.2019V1.41345H65.9264V40.7319ZM1.88296 40.0454H65.2453V2.09999H1.88296V40.0454Z" fill="#8B0417"/>
</g>
<defs>
<clipPath id="clip0_8_595">
<rect width="67" height="42" fill="white"/>
</clipPath>
</defs>
</svg>
