<svg width="46" height="46" viewBox="0 0 46 46" fill="none" xmlns="http://www.w3.org/2000/svg">
<circle cx="23" cy="23" r="23" fill="#F9D615"/>
<path d="M9.81972 20.1203L13.186 12.2487C13.3804 11.7938 13.8157 11.5 14.2946 11.5H31.7053C32.1843 11.5 32.6196 11.7938 32.8143 12.2487L36.18 20.1203C36.557 21.0014 36.4799 22.0101 35.9746 22.8184C35.512 23.5583 34.7552 24.0204 33.9196 24.0945V34.8279C33.9196 35.1759 33.6478 35.4583 33.313 35.4583H12.687C12.3522 35.4583 12.0804 35.1759 12.0804 34.8279V24.0945C11.2444 24.0204 10.4879 23.5583 10.0254 22.8184C9.52004 22.0098 9.44299 21.0014 9.81972 20.1203ZM25.4266 34.1974H29.0664V27.2621H25.4266V34.1974ZM24.2133 34.1974V26.6316C24.2133 26.2836 24.4851 26.0011 24.8199 26.0011H29.6731C30.0079 26.0011 30.2797 26.2836 30.2797 26.6316V34.1974H32.7063V24.0772C31.9783 23.964 31.3307 23.5482 30.9037 22.942C30.8927 22.9574 30.8842 22.9742 30.873 22.9893C30.3522 23.7014 29.5599 24.1096 28.6994 24.1096H27.9338C27.016 24.1096 26.1988 23.6368 25.7026 22.9042C25.6632 22.9565 25.6252 23.0101 25.5822 23.0599C25.0074 23.7269 24.1836 24.1096 23.3221 24.1096H22.6782C21.8164 24.1096 20.9926 23.7269 20.4181 23.0596C20.375 23.0098 20.3374 22.9562 20.2977 22.9039C19.8015 23.6368 18.984 24.1096 18.0661 24.1096H17.3006C16.44 24.1096 15.6478 23.7014 15.127 22.9893C15.1157 22.9742 15.1072 22.9574 15.0963 22.942C14.6692 23.5482 14.0216 23.964 13.2937 24.0772V34.1974H24.2133Z" fill="#BD0025"/>
<path d="M15.1625 19.1456L27.1838 6.45713L23.6888 14.3212L23.3763 15.0243H24.1457H29.852L18.2067 27.5422L21.5242 19.8435L21.8249 19.1456H21.065H15.1625Z" fill="#F9D615" stroke="#BD0025"/>
</svg>
