<svg width="25" height="25" viewBox="0 0 25 25" fill="none" xmlns="http://www.w3.org/2000/svg">
<path d="M8.92857 5.46875C8.92857 3.74512 10.5301 2.34375 12.5 2.34375C14.4699 2.34375 16.0714 3.74512 16.0714 5.46875V7.8125H8.92857V5.46875ZM6.25 7.8125H2.67857C1.19978 7.8125 0 8.8623 0 10.1562V20.3125C0 22.9004 2.39955 25 5.35714 25H19.6429C22.6004 25 25 22.9004 25 20.3125V10.1562C25 8.8623 23.8002 7.8125 22.3214 7.8125H18.75V5.46875C18.75 2.44629 15.9542 0 12.5 0C9.04576 0 6.25 2.44629 6.25 5.46875V7.8125ZM7.58929 12.5C6.8471 12.5 6.25 11.9775 6.25 11.3281C6.25 10.6787 6.8471 10.1562 7.58929 10.1562C8.33147 10.1562 8.92857 10.6787 8.92857 11.3281C8.92857 11.9775 8.33147 12.5 7.58929 12.5ZM18.75 11.3281C18.75 11.9775 18.1529 12.5 17.4107 12.5C16.6685 12.5 16.0714 11.9775 16.0714 11.3281C16.0714 10.6787 16.6685 10.1562 17.4107 10.1562C18.1529 10.1562 18.75 10.6787 18.75 11.3281Z" fill="#F9D615"/>
</svg>
