<svg width="18" height="25" viewBox="0 0 18 25" fill="none" xmlns="http://www.w3.org/2000/svg">
<path d="M8.75048 0C3.94074 0 0 3.92949 0 8.72548C0 10.5835 0.593498 12.3105 1.598 13.7302L7.68248 24.2484C8.53473 25.3617 9.10123 25.1502 9.80997 24.1897L16.5207 12.769C16.6562 12.5237 16.7625 12.2625 16.8552 11.996C17.2811 10.9582 17.5001 9.84723 17.5 8.72548C17.5 3.92949 13.56 0 8.75048 0ZM8.75048 4.08849C11.3402 4.08849 13.3997 6.14298 13.3997 8.72548C13.3997 11.308 11.3402 13.3615 8.75048 13.3615C6.16048 13.3615 4.10024 11.3077 4.10024 8.72548C4.10024 6.14298 6.16048 4.08849 8.75023 4.08849H8.75048Z" fill="#F9D615"/>
</svg>
